# xmcd
#
# Track frame offsets:
#	150
#	26136
#	47452
#	63259
#	84243
#	110033
#	116693
#	140152
#	168474
#	192628
#
# Disc length: 2824 seconds
#
# Revision: 1
# Processed by: cddbd v1.5.1PL2 Copyright (c) Steve Scherf et al.
# Submitted via: EasyCDDAExtractor 8.0.2.1
#
DISCID=8e0b060a
DTITLE=Dio - Hall Rhenus Strasbourg 10-11-87 Disc 2
DYEAR=1987
DGENRE=Hard Rock
TTITLE0=Heaven and Hell
TTITLE1=Man On The Silver Mountain
TTITLE2=All The Fools Sailed Away
TTITLE3=Keyboard Solo
TTITLE4=Jamming - All The Fools Sailed Away Reprise
TTITLE5=The Last In Line Reprise
TTITLE6=Night People
TTITLE7=Sunset Superman
TTITLE8=We Rock
TTITLE9=The Mob Rules
EXTD=
EXTT0=
EXTT1=
EXTT2=
EXTT3=
EXTT4=
EXTT5=
EXTT6=
EXTT7=
EXTT8=
EXTT9=
PLAYORDER=
